<svg width="35" height="36" viewBox="0 0 35 36" fill="none" xmlns="http://www.w3.org/2000/svg">
<path d="M17.4487 0.324736C8.0187 0.359736 0.382451 8.21724 0.416618 17.8772C0.450785 27.5372 8.1212 35.3597 17.5512 35.3247C26.9812 35.2897 34.6175 27.4322 34.5833 17.7722C34.5491 8.11224 26.8787 0.307236 17.4487 0.324736ZM21.3608 17.9997C22.6933 18.4722 24.487 19.4872 24.487 22.6197C24.487 25.3147 22.42 27.4847 19.8916 27.4847H18.7812V28.4997C18.7812 29.2172 18.2004 29.8122 17.5 29.8122C16.7995 29.8122 16.2187 29.2172 16.2187 28.4997V27.4847H15.6037C12.802 27.4847 10.53 25.0697 10.53 22.0947C10.53 21.3772 11.1108 20.7822 11.8112 20.7822C12.5116 20.7822 13.0925 21.3772 13.0925 22.0947C13.0925 23.6172 14.22 24.8597 15.6037 24.8597H16.2187V18.9447L13.6391 17.9997C12.3066 17.5272 10.5129 16.5122 10.5129 13.3797C10.5129 10.6847 12.58 8.51474 15.1083 8.51474H16.2187V7.49974C16.2187 6.78224 16.7995 6.18724 17.5 6.18724C18.2004 6.18724 18.7812 6.78224 18.7812 7.49974V8.51474H19.3962C22.1979 8.51474 24.47 10.9297 24.47 13.9047C24.47 14.6222 23.8891 15.2172 23.1887 15.2172C22.4883 15.2172 21.9075 14.6222 21.9075 13.9047C21.9075 12.3822 20.78 11.1397 19.3962 11.1397H18.7812V17.0547L21.3608 17.9997Z" fill="#FFC01E"/>
</svg>
