<svg width="47" height="40" viewBox="0 0 47 40" fill="none" xmlns="http://www.w3.org/2000/svg">
<path d="M29.1729 21.2495H27.6722H18.5706V25.9662H21.1237H29.1729C31.0244 25.9662 32.5445 24.8995 32.5445 23.5995C32.5445 22.2995 31.0244 21.2495 29.1729 21.2495Z" fill="#FFC01E"/>
<path d="M23.3877 3.3335C12.6295 3.3335 3.89819 10.8002 3.89819 20.0002C3.89819 29.2002 12.6295 36.6668 23.3877 36.6668C34.1459 36.6668 42.8772 29.2002 42.8772 20.0002C42.8772 10.8002 34.1459 3.3335 23.3877 3.3335ZM29.1761 28.4668H25.9603V30.8335C25.9603 31.5168 25.2977 32.0835 24.4986 32.0835C23.6995 32.0835 23.0369 31.5168 23.0369 30.8335V28.4668H21.1269H20.6787V30.8335C20.6787 31.5168 20.016 32.0835 19.217 32.0835C18.4179 32.0835 17.7552 31.5168 17.7552 30.8335V28.4668H17.1121H13.7404C12.9413 28.4668 12.2787 27.9002 12.2787 27.2168C12.2787 26.5335 12.9413 25.9668 13.7404 25.9668H15.6504V20.0002V14.0335H13.7404C12.9413 14.0335 12.2787 13.4668 12.2787 12.7835C12.2787 12.1002 12.9413 11.5335 13.7404 11.5335H17.1121H17.7552V9.16683C17.7552 8.4835 18.4179 7.91683 19.217 7.91683C20.016 7.91683 20.6787 8.4835 20.6787 9.16683V11.5335H21.1269H23.0369V9.16683C23.0369 8.4835 23.6995 7.91683 24.4986 7.91683C25.2977 7.91683 25.9603 8.4835 25.9603 9.16683V11.5335H27.6754C30.6963 11.5335 33.3664 13.8002 33.3664 16.4002C33.3664 17.5168 32.8986 18.5335 32.158 19.3668C34.1264 20.1835 35.4712 21.7835 35.4712 23.6335C35.4712 26.2835 32.6452 28.4668 29.1761 28.4668Z" fill="#FFC01E"/>
<path d="M30.4397 16.3838C30.4397 15.2838 29.2313 14.0171 27.6722 14.0171H21.1237H18.5706V18.7338H27.6722C29.1923 18.7504 30.4397 17.6838 30.4397 16.3838Z" fill="#FFC01E"/>
</svg>
