<svg width="44" height="44" viewBox="0 0 44 44" fill="none" xmlns="http://www.w3.org/2000/svg">
<rect width="44" height="44" rx="8" fill="#31353F"/>
<path d="M18.7701 24.4299L20.3801 25.1499C21.4101 25.6099 22.5901 25.6099 23.6301 25.1499L25.2401 24.4299C26.6801 23.7899 28.0101 25.5299 27.0101 26.7499L23.5501 30.9799C22.7001 32.0199 21.3101 32.0199 20.4501 30.9799L17.0001 26.7499C15.9901 25.5299 17.3201 23.7899 18.7701 24.4299Z" fill="#3A6FF8"/>
<path d="M18.5703 21.6699C18.2703 21.8899 18.3103 22.3499 18.6503 22.5199L21.0003 23.6899C21.5503 23.9699 22.4403 23.9699 22.9803 23.6899L25.3303 22.5199C25.6603 22.3499 25.7003 21.8999 25.4103 21.6699L22.3003 19.3299C22.1203 19.1999 21.8803 19.1999 21.7003 19.3299L18.5703 21.6699Z" fill="#3A6FF8"/>
<path d="M27.8803 18.24L23.7103 13.04C23.6303 12.94 23.5403 12.85 23.4503 12.76C23.1903 12.51 22.8203 12.74 22.8203 13.1V17.4C22.8203 17.56 22.8903 17.71 23.0203 17.8L27.1703 20.92L27.3503 21.05C27.5303 21.18 27.7803 21.18 27.9303 21.02C28.6303 20.26 28.6203 19.16 27.8803 18.24Z" fill="#3A6FF8"/>
<path d="M16.1111 18.3298L20.2611 13.0498C20.3411 12.9498 20.4211 12.8598 20.5111 12.7698C20.7711 12.5198 21.1411 12.7398 21.1411 13.1098V17.4798C21.1411 17.6398 21.0711 17.7798 20.9411 17.8798L16.8111 21.0498L16.6411 21.1798C16.4611 21.3098 16.2111 21.3098 16.0511 21.1398C15.3711 20.3698 15.3811 19.2698 16.1111 18.3298Z" fill="#3A6FF8"/>
</svg>
