<svg width="38" height="35" viewBox="0 0 38 35" fill="none" xmlns="http://www.w3.org/2000/svg">
<path d="M23.7385 17.7539C23.7385 15.3762 21.6463 13.4568 19.0545 13.4568C16.4626 13.4568 14.3704 15.3762 14.3704 17.7539C14.3704 20.1316 16.4626 22.051 19.0545 22.051C19.6946 22.051 20.3192 21.9364 20.8812 21.7073" stroke="#292D32" stroke-width="1.5" stroke-miterlimit="10" stroke-linecap="round" stroke-linejoin="round"/>
<path d="M11.0615 30.0438L12.7634 30.9462C13.9969 31.6194 15.5895 31.2184 16.3234 30.0868L16.4951 29.8147C17.9004 27.5658 20.2112 27.5658 21.632 29.8147L21.8038 30.0868C22.5376 31.2184 24.1302 31.6194 25.3637 30.9462L28.0648 29.5282C29.4857 28.7834 29.9697 27.1075 29.1578 25.8183C27.7369 23.5695 28.8924 21.7361 31.7184 21.7361C33.3422 21.7361 34.685 20.5186 34.685 19.0146V16.4936C34.685 15.0039 33.3579 13.772 31.7184 13.772C30.1415 13.772 29.0797 13.1991 28.705 12.2967C28.4083 11.5948 28.5332 10.6781 29.1578 9.68978C29.9697 8.38632 29.4857 6.72477 28.0648 5.97994L26.8001 5.32104" stroke="#292D32" stroke-width="1.5" stroke-miterlimit="10" stroke-linecap="round" stroke-linejoin="round"/>
<path d="M21.6151 5.69333C20.2098 7.94216 17.899 7.94216 16.4782 5.69333L16.3064 5.42118C15.5882 4.28961 13.9956 3.88854 12.7621 4.56176L10.061 5.97981C8.64014 6.72464 8.15611 8.40052 8.96802 9.70398C10.3889 11.9385 9.23345 13.7719 6.40739 13.7719C4.78357 13.7719 3.4408 14.9894 3.4408 16.4934V19.0143C3.4408 20.504 4.76796 21.7358 6.40739 21.7358C9.23345 21.7358 10.3889 23.5693 8.96802 25.8181" stroke="#292D32" stroke-width="1.5" stroke-miterlimit="10" stroke-linecap="round" stroke-linejoin="round"/>
</svg>
