<svg width="33" height="29" viewBox="0 0 33 29" fill="none" xmlns="http://www.w3.org/2000/svg">
<path fill-rule="evenodd" clip-rule="evenodd" d="M0.560633 14.2592C0.560633 7.76702 5.14843 2.25781 11.5121 0.311235C11.2628 1.8803 11.126 3.58838 11.126 5.37526C11.126 13.0476 13.6487 19.2672 16.7606 19.2672C19.8725 19.2672 22.3952 13.0476 22.3952 5.37525C22.3952 3.63323 22.2651 1.96609 22.0277 0.429643C28.1975 2.4739 32.6074 7.89412 32.6074 14.2592C32.6074 14.6895 32.5873 15.1154 32.5478 15.5362C31.9073 15.4416 31.2157 15.3899 30.4943 15.3899C27.1879 15.3899 24.5076 16.4748 24.5076 17.8129C24.5076 19.1511 27.1879 20.236 30.4943 20.236C30.7456 20.236 30.9933 20.2297 31.2365 20.2175C28.7446 25.3672 23.1215 28.9589 16.584 28.9589C10.0539 28.9589 4.43615 25.3753 1.94 20.2349C2.00825 20.2356 2.07675 20.236 2.14549 20.236C5.93812 20.236 9.01266 19.1511 9.01266 17.8129C9.01266 16.4748 5.93812 15.3899 2.14549 15.3899C1.61852 15.3899 1.10541 15.4109 0.612492 15.4505C0.578139 15.0576 0.560633 14.6603 0.560633 14.2592ZM16.5841 21.8514C15.1254 21.8514 13.9428 22.9362 13.9428 24.2744C13.9428 25.6126 15.1254 26.6974 16.5841 26.6974C18.0428 26.6974 19.2253 25.6126 19.2253 24.2744C19.2253 22.9362 18.0428 21.8514 16.5841 21.8514Z" fill="url(#paint0_linear_262_33)"/>
<defs>
<linearGradient id="paint0_linear_262_33" x1="32.1977" y1="28.583" x2="2.87209" y2="5.40726" gradientUnits="userSpaceOnUse">
<stop stop-color="#F43F5E"/>
<stop offset="1" stop-color="#FDA4AF"/>
</linearGradient>
</defs>
</svg>
