<svg width="154" height="49" viewBox="0 0 154 49" fill="none" xmlns="http://www.w3.org/2000/svg">
<g clip-path="url(#clip0_226_226)">
<path d="M27.5 11.7C26.6 11.7 25.8 10.9 25.8 9.99995V3.89995C25.8 2.99995 26.6 2.19995 27.5 2.19995C28.4 2.19995 29.2001 2.99995 29.2001 3.89995V9.99995C29.2001 11 28.4 11.7 27.5 11.7Z" fill="url(#paint0_linear_226_226)"/>
<path d="M42 9.39996C41.5 10.1 40.6 10.2 39.8 9.89996L27.6 3.49996C26.8001 3.09996 25.8 3.69996 25.8 4.59996V3.19996C25.8 1.09996 28 -0.200041 29.9 0.799959L41.4001 6.89996C42.4001 7.39996 42.7001 8.59996 42 9.39996Z" fill="url(#paint1_linear_226_226)"/>
<path d="M41.8 11.7001L30.7 17.9001C28.5 19.1001 26 19.8001 23.5 19.8001V16.5001C25.2 16.5001 26.9 16.1001 28.4 15.2001L40.7 8.4001C41.4 8.0001 41.4 7.0001 40.7 6.6001L41.6 7.1001C43.6 8.0001 43.6 10.7001 41.8 11.7001Z" fill="url(#paint2_linear_226_226)"/>
<path d="M32.5 33.3C33 32.5 34 32.2 34.8 32.7L40.2 35.7C41 36.2 41.3 37.2 40.8 38C40.3 38.8 39.3 39.1 38.5 38.6L33.2 35.6C32.3 35.1 32.1 34.1 32.5 33.3Z" fill="url(#paint3_linear_226_226)"/>
<path d="M27.5 46.9999C27.2 46.2999 27.5 45.3999 28.2 44.8999L39.9 37.4999C40.7 36.9999 40.6 35.7999 39.9 35.3999L41 35.9999C42.8 36.9999 42.9 39.5999 41.1 40.7999L30 47.7999C29.1 48.2999 27.9 47.9999 27.5 46.9999Z" fill="url(#paint4_linear_226_226)"/>
<path d="M25.9 45.5L25.8 33C25.8 30.5 26.4001 28.1 27.7001 26L30.7001 27.7C29.9001 29.2 29.4 30.8 29.4 32.5L29.5 46.4C29.5 47.2 30.4001 47.7 31.1 47.3L30.2001 47.8C28.3001 48.9 25.9 47.6 25.9 45.5Z" fill="url(#paint5_linear_226_226)"/>
<path d="M38.7 25.9999L44.1 28.9999C44.9 29.4999 45.2 30.4999 44.7 31.2999C44.2 32.0999 43.2 32.3999 42.4 31.8999L37 28.9999C36.2 28.4999 35.9 27.4999 36.4 26.6999C36.9 25.8999 37.9 25.5999 38.7 25.9999Z" fill="url(#paint6_linear_226_226)"/>
<path d="M45.8 15.3999C46.9 15.1999 47.8 16.0999 47.8 17.0999L47.4 30.1999C47.3 32.2999 45.1 33.5999 43.3 32.4999L42.1 31.7999C42.9 32.2999 43.9 31.6999 43.9 30.7999L44.4 16.9999C44.4 16.1999 45 15.4999 45.8 15.3999Z" fill="url(#paint7_linear_226_226)"/>
<path d="M47.7999 17.1V18.1C47.7999 17.3 46.9 16.8 46.2 17.2L34.0999 24.2C32.5999 25.1 31.4 26.3 30.6 27.8L27.7 26.2C28.9 24.1 30.6999 22.3 32.7999 21.1L43.7 14.8C45.6 13.6 47.9 15 47.7999 17.1Z" fill="url(#paint8_linear_226_226)"/>
<path d="M14.6 35.5999L9.10001 38.5999C8.20001 39.0999 7.20001 38.7999 6.70001 37.9999C6.20001 37.1999 6.50001 36.0999 7.30001 35.6999L12.8 32.5999C13.7 32.0999 14.7 32.3999 15.2 33.1999C15.8 34.0999 15.5 35.0999 14.6 35.5999Z" fill="url(#paint9_linear_226_226)"/>
<path d="M20.3 46.9999C19.9 47.9999 18.7 48.3999 17.8 47.7999L6.70002 40.7999C5.00002 39.6999 5.00002 37.0999 6.80002 35.9999L8.00002 35.3999C7.20002 35.8999 7.20002 36.9999 8.00002 37.4999L19.7 44.8999C20.3 45.2999 20.6 46.1999 20.3 46.9999Z" fill="url(#paint10_linear_226_226)"/>
<path d="M17.7001 47.6999L16.8 47.1999C17.5 47.5999 18.4 47.0999 18.4 46.2999L18.5 32.3999C18.5 30.6999 18.0001 28.9999 17.2001 27.5999L20.2001 25.8999C21.4001 27.9999 22.1 30.3999 22.1 32.8999L22 45.3999C21.9 47.5999 19.5001 48.8999 17.7001 47.6999Z" fill="url(#paint11_linear_226_226)"/>
<path d="M11.2 26.6999C11.6 27.4999 11.4 28.5999 10.6 28.9999L5.40002 31.9999C4.60002 32.4999 3.60002 32.1999 3.10002 31.3999C2.70002 30.5999 2.90002 29.4999 3.70002 29.0999L8.90002 26.0999C9.70002 25.5999 10.7 25.8999 11.2 26.6999Z" fill="url(#paint12_linear_226_226)"/>
<path d="M2 15.3999C2.8 15.4999 3.4 16.1999 3.4 16.9999L3.8 30.7999C3.8 31.6999 4.8 32.2999 5.6 31.7999L4.4 32.4999C2.6 33.4999 0.3 32.2999 0.2 30.1999L0 17.0999C0 15.9999 0.9 15.1999 2 15.3999Z" fill="url(#paint13_linear_226_226)"/>
<path d="M18.3 9.99995V3.89995C18.3 2.99995 19 2.19995 19.9 2.19995C20.8 2.19995 21.5 2.99995 21.5 3.89995V9.99995C21.5 10.9 20.8 11.7 19.9 11.7C19 11.7 18.3 11 18.3 9.99995Z" fill="url(#paint14_linear_226_226)"/>
<path d="M5.50003 9.40006C4.80003 8.60006 5.10003 7.40006 6.00003 6.90006L17.3 0.900056C19.1 -0.0999438 21.3 1.20006 21.3 3.30006V4.60006C21.3 3.70006 20.3 3.10006 19.5 3.50006L7.50003 9.90006C6.90003 10.2001 6.00003 10.1001 5.50003 9.40006Z" fill="url(#paint15_linear_226_226)"/>
<path d="M5.79997 7.1001L6.69997 6.6001C5.99997 7.0001 5.99997 8.0001 6.69997 8.3001L18.9 15.1001C20.4 15.9001 22.1 16.4001 23.8 16.4001V19.7001C21.4 19.7001 18.9 19.1001 16.7 17.8001L5.69997 11.7001C3.89997 10.7001 3.99997 8.0001 5.79997 7.1001Z" fill="url(#paint16_linear_226_226)"/>
<path d="M4.09998 14.7001L15 21.0001C17.2 22.2001 18.9 24.0001 20.2 26.1001L17.3 27.8001C16.5 26.4001 15.3 25.1001 13.8 24.3001L1.69998 17.3001C0.899977 16.8001 -2.30365e-05 17.3001 -2.30365e-05 18.1001V17.1001C-0.100023 15.0001 2.19998 13.6001 4.09998 14.7001Z" fill="url(#paint17_linear_226_226)"/>
<path d="M153.3 17.5C152.8 18 152.3 18.2 151.6 18.2C150.9 18.2 150.3 18 149.8 17.5C149.3 17 149.1 16.4 149.1 15.7C149.1 15 149.3 14.4 149.8 14C150.3 13.5 150.9 13.3 151.6 13.3C152.3 13.3 152.9 13.5 153.3 14C153.8 14.5 154 15 154 15.7C154 16.4 153.8 17 153.3 17.5Z" fill="url(#paint18_linear_226_226)"/>
<path d="M145.3 17.5C144.8 18 144.3 18.2 143.6 18.2C142.9 18.2 142.3 18 141.8 17.5C141.3 17 141.1 16.4 141.1 15.7C141.1 15 141.3 14.4 141.8 14C142.3 13.5 142.9 13.3 143.6 13.3C144.3 13.3 144.9 13.5 145.3 14C145.8 14.5 146 15 146 15.7C146 16.4 145.8 17 145.3 17.5Z" fill="url(#paint19_linear_226_226)"/>
<path d="M87.6 19.9001H91.2V34.9001H87.7L87.5 32.7001C86.6 34.5001 84.3 35.3001 82.6 35.3001C78.2 35.3001 74.9 32.6001 74.9 27.4001C74.9 22.2001 78.3 19.6001 82.7 19.6001C84.7 19.6001 86.6 20.5001 87.5 22.0001L87.6 19.9001ZM78.6 27.3001C78.6 30.2001 80.6 31.9001 83 31.9001C88.8 31.9001 88.8 22.8001 83 22.8001C80.6 22.8001 78.6 24.5001 78.6 27.3001Z" fill="#222F38"/>
<path d="M98.7 14.1001V22.4001C100.1 20.7001 101.8 20.1001 103.5 20.1001C107.9 20.1001 109.8 23.0001 109.8 27.4001V35.3001H106V27.5001C106 24.8001 104.5 23.6001 102.5 23.6001C100.2 23.6001 98.7 25.5001 98.7 27.7001V35.3001H94.9V14.1001H98.7Z" fill="#222F38"/>
<path d="M123.6 35.2V26.9C123.6 24.9 122.5 23 120.4 23C118.3 23 117.1 24.9 117.1 26.9V35.2H113.2V19.7H116.8L117.1 21.6C117.9 20 119.7 19.5 121.2 19.5C123.1 19.5 125 20.3 125.8 22.4C127.2 20.2 129 19.6 131.1 19.6C135.6 19.6 137.7 22.3 137.7 26.9V35.3H133.8V26.9C133.8 24.9 132.9 23.1 130.8 23.1C128.7 23.1 127.4 24.9 127.4 26.9V35.2H123.6Z" fill="#222F38"/>
<path d="M141.9 20.3V35.3H145.3V20.3H141.9Z" fill="#222F38"/>
<path d="M149.9 20.3V35.3H153.3V20.3H149.9Z" fill="#222F38"/>
<path d="M73.1 35.3001H69.2L60.4 22.4001V35.3001H56.5V16.4001H60.4L69.2 29.4001V16.4001H73.1V35.3001Z" fill="#222F38"/>
</g>
<defs>
<linearGradient id="paint0_linear_226_226" x1="27.5184" y1="7.43355" x2="27.5184" y2="-2.04225" gradientUnits="userSpaceOnUse">
<stop stop-color="#8F2B83"/>
<stop offset="0.0567148" stop-color="#862C84"/>
<stop offset="0.3369" stop-color="#602E8A"/>
<stop offset="0.5956" stop-color="#45308E"/>
<stop offset="0.823" stop-color="#343191"/>
<stop offset="0.9944" stop-color="#2E3192"/>
</linearGradient>
<linearGradient id="paint1_linear_226_226" x1="40.484" y1="9.32136" x2="26.5695" y2="1.99996" gradientUnits="userSpaceOnUse">
<stop stop-color="#8F2B83"/>
<stop offset="0.1022" stop-color="#A02888"/>
<stop offset="0.3687" stop-color="#C62293"/>
<stop offset="0.6149" stop-color="#E11E9B"/>
<stop offset="0.8313" stop-color="#F21BA0"/>
<stop offset="0.9944" stop-color="#F81AA2"/>
</linearGradient>
<linearGradient id="paint2_linear_226_226" x1="28.6485" y1="16.4026" x2="50.5898" y2="3.6274" gradientUnits="userSpaceOnUse">
<stop stop-color="#02A5DC"/>
<stop offset="0.1446" stop-color="#029CD7"/>
<stop offset="0.385" stop-color="#0182CB"/>
<stop offset="0.6898" stop-color="#0159B7"/>
<stop offset="0.9944" stop-color="#00299F"/>
</linearGradient>
<linearGradient id="paint3_linear_226_226" x1="36.1376" y1="35.3217" x2="44.3727" y2="40.035" gradientUnits="userSpaceOnUse">
<stop stop-color="#8F2B83"/>
<stop offset="0.0567148" stop-color="#862C84"/>
<stop offset="0.3369" stop-color="#602E8A"/>
<stop offset="0.5956" stop-color="#45308E"/>
<stop offset="0.823" stop-color="#343191"/>
<stop offset="0.9944" stop-color="#2E3192"/>
</linearGradient>
<linearGradient id="paint4_linear_226_226" x1="28.3267" y1="45.9241" x2="41.5814" y2="37.3507" gradientUnits="userSpaceOnUse">
<stop stop-color="#8F2B83"/>
<stop offset="0.1022" stop-color="#A02888"/>
<stop offset="0.3687" stop-color="#C62293"/>
<stop offset="0.6149" stop-color="#E11E9B"/>
<stop offset="0.8313" stop-color="#F21BA0"/>
<stop offset="0.9944" stop-color="#F81AA2"/>
</linearGradient>
<linearGradient id="paint5_linear_226_226" x1="28.4661" y1="32.0034" x2="28.3306" y2="57.03" gradientUnits="userSpaceOnUse">
<stop stop-color="#02A5DC"/>
<stop offset="0.1446" stop-color="#029CD7"/>
<stop offset="0.385" stop-color="#0182CB"/>
<stop offset="0.6898" stop-color="#0159B7"/>
<stop offset="0.9944" stop-color="#00299F"/>
</linearGradient>
<linearGradient id="paint6_linear_226_226" x1="40.0744" y1="28.762" x2="48.3119" y2="33.4525" gradientUnits="userSpaceOnUse">
<stop stop-color="#8F2B83"/>
<stop offset="0.0567148" stop-color="#862C84"/>
<stop offset="0.3369" stop-color="#602E8A"/>
<stop offset="0.5956" stop-color="#45308E"/>
<stop offset="0.823" stop-color="#343191"/>
<stop offset="0.9944" stop-color="#2E3192"/>
</linearGradient>
<linearGradient id="paint7_linear_226_226" x1="45.3502" y1="16.5644" x2="44.7216" y2="32.3572" gradientUnits="userSpaceOnUse">
<stop stop-color="#8F2B83"/>
<stop offset="0.1022" stop-color="#A02888"/>
<stop offset="0.3687" stop-color="#C62293"/>
<stop offset="0.6149" stop-color="#E11E9B"/>
<stop offset="0.8313" stop-color="#F21BA0"/>
<stop offset="0.9944" stop-color="#F81AA2"/>
</linearGradient>
<linearGradient id="paint8_linear_226_226" x1="33.3922" y1="23.7221" x2="54.8903" y2="10.6489" gradientUnits="userSpaceOnUse">
<stop stop-color="#02A5DC"/>
<stop offset="0.1446" stop-color="#029CD7"/>
<stop offset="0.385" stop-color="#0182CB"/>
<stop offset="0.6898" stop-color="#0159B7"/>
<stop offset="0.9944" stop-color="#00299F"/>
</linearGradient>
<linearGradient id="paint9_linear_226_226" x1="11.5391" y1="35.3212" x2="3.17901" y2="40.2394" gradientUnits="userSpaceOnUse">
<stop stop-color="#8F2B83"/>
<stop offset="0.0567148" stop-color="#862C84"/>
<stop offset="0.3369" stop-color="#602E8A"/>
<stop offset="0.5956" stop-color="#45308E"/>
<stop offset="0.823" stop-color="#343191"/>
<stop offset="0.9944" stop-color="#2E3192"/>
</linearGradient>
<linearGradient id="paint10_linear_226_226" x1="19.4952" y1="45.9324" x2="6.26312" y2="37.3768" gradientUnits="userSpaceOnUse">
<stop stop-color="#8F2B83"/>
<stop offset="0.1022" stop-color="#A02888"/>
<stop offset="0.3687" stop-color="#C62293"/>
<stop offset="0.6149" stop-color="#E11E9B"/>
<stop offset="0.8313" stop-color="#F21BA0"/>
<stop offset="0.9944" stop-color="#F81AA2"/>
</linearGradient>
<linearGradient id="paint11_linear_226_226" x1="19.3359" y1="32.0003" x2="19.4712" y2="57.0137" gradientUnits="userSpaceOnUse">
<stop stop-color="#02A5DC"/>
<stop offset="0.1446" stop-color="#029CD7"/>
<stop offset="0.385" stop-color="#0182CB"/>
<stop offset="0.6898" stop-color="#0159B7"/>
<stop offset="0.9944" stop-color="#00299F"/>
</linearGradient>
<linearGradient id="paint12_linear_226_226" x1="7.61552" y1="28.778" x2="-0.513275" y2="33.2899" gradientUnits="userSpaceOnUse">
<stop stop-color="#8F2B83"/>
<stop offset="0.0567148" stop-color="#862C84"/>
<stop offset="0.3369" stop-color="#602E8A"/>
<stop offset="0.5956" stop-color="#45308E"/>
<stop offset="0.823" stop-color="#343191"/>
<stop offset="0.9944" stop-color="#2E3192"/>
</linearGradient>
<linearGradient id="paint13_linear_226_226" x1="2.4417" y1="16.5649" x2="3.0672" y2="32.3578" gradientUnits="userSpaceOnUse">
<stop stop-color="#8F2B83"/>
<stop offset="0.1022" stop-color="#A02888"/>
<stop offset="0.3687" stop-color="#C62293"/>
<stop offset="0.6149" stop-color="#E11E9B"/>
<stop offset="0.8313" stop-color="#F21BA0"/>
<stop offset="0.9944" stop-color="#F81AA2"/>
</linearGradient>
<linearGradient id="paint14_linear_226_226" x1="19.896" y1="7.38915" x2="19.896" y2="-2.08695" gradientUnits="userSpaceOnUse">
<stop stop-color="#8F2B83"/>
<stop offset="0.0567148" stop-color="#862C84"/>
<stop offset="0.3369" stop-color="#602E8A"/>
<stop offset="0.5956" stop-color="#45308E"/>
<stop offset="0.823" stop-color="#343191"/>
<stop offset="0.9944" stop-color="#2E3192"/>
</linearGradient>
<linearGradient id="paint15_linear_226_226" x1="7.01153" y1="9.14456" x2="20.799" y2="1.99106" gradientUnits="userSpaceOnUse">
<stop stop-color="#8F2B83"/>
<stop offset="0.1022" stop-color="#A02888"/>
<stop offset="0.3687" stop-color="#C62293"/>
<stop offset="0.6149" stop-color="#E11E9B"/>
<stop offset="0.8313" stop-color="#F21BA0"/>
<stop offset="0.9944" stop-color="#F81AA2"/>
</linearGradient>
<linearGradient id="paint16_linear_226_226" x1="18.7742" y1="16.3369" x2="-3.02943" y2="3.8015" gradientUnits="userSpaceOnUse">
<stop stop-color="#02A5DC"/>
<stop offset="0.1446" stop-color="#029CD7"/>
<stop offset="0.385" stop-color="#0182CB"/>
<stop offset="0.6898" stop-color="#0159B7"/>
<stop offset="0.9944" stop-color="#00299F"/>
</linearGradient>
<linearGradient id="paint17_linear_226_226" x1="14.4041" y1="23.7241" x2="-7.08342" y2="10.611" gradientUnits="userSpaceOnUse">
<stop stop-color="#02A5DC"/>
<stop offset="0.1446" stop-color="#029CD7"/>
<stop offset="0.385" stop-color="#0182CB"/>
<stop offset="0.6898" stop-color="#0159B7"/>
<stop offset="0.9944" stop-color="#00299F"/>
</linearGradient>
<linearGradient id="paint18_linear_226_226" x1="149.091" y1="15.7447" x2="154.008" y2="15.7447" gradientUnits="userSpaceOnUse">
<stop stop-color="#8F2B83"/>
<stop offset="0.1022" stop-color="#A02888"/>
<stop offset="0.3687" stop-color="#C62293"/>
<stop offset="0.6149" stop-color="#E11E9B"/>
<stop offset="0.8313" stop-color="#F21BA0"/>
<stop offset="0.9944" stop-color="#F81AA2"/>
</linearGradient>
<linearGradient id="paint19_linear_226_226" x1="141.069" y1="15.7447" x2="145.986" y2="15.7447" gradientUnits="userSpaceOnUse">
<stop stop-color="#8F2B83"/>
<stop offset="0.1022" stop-color="#A02888"/>
<stop offset="0.3687" stop-color="#C62293"/>
<stop offset="0.6149" stop-color="#E11E9B"/>
<stop offset="0.8313" stop-color="#F21BA0"/>
<stop offset="0.9944" stop-color="#F81AA2"/>
</linearGradient>
<clipPath id="clip0_226_226">
<rect width="154" height="49" fill="white"/>
</clipPath>
</defs>
</svg>
